<?xml version="1.0" standalone="no"?>
<!DOCTYPE svg PUBLIC "-//W3C//DTD SVG 20010904//EN"
 "http://www.w3.org/TR/2001/REC-SVG-20010904/DTD/svg10.dtd">
<svg version="1.0" xmlns="http://www.w3.org/2000/svg"
 width="371.000000pt" height="291.000000pt" viewBox="0 0 371.000000 291.000000"
 preserveAspectRatio="xMidYMid meet">
<metadata>
Created by potrace 1.16, written by Peter Selinger 2001-2019
</metadata>
<g transform="translate(0.000000,291.000000) scale(0.100000,-0.100000)"
fill="#000000" stroke="none">
<path d="M1310 2850 l0 -50 -50 0 -50 0 0 -50 0 -50 -100 0 -100 0 0 -50 0
-50 -250 0 -250 0 0 -50 0 -50 -50 0 -50 0 0 -50 0 -50 -50 0 -50 0 0 -150 0
-150 50 0 50 0 0 -100 0 -100 50 0 50 0 0 -200 0 -200 -50 0 -50 0 0 -100 0
-100 -50 0 -50 0 0 -50 0 -50 -50 0 -50 0 0 -50 0 -50 -50 0 -50 0 0 -100 0
-100 -50 0 -50 0 0 -150 0 -150 50 0 50 0 0 -100 0 -100 50 0 50 0 0 -50 0
-50 100 0 100 0 0 -50 0 -50 150 0 150 0 0 50 0 50 150 0 150 0 0 -50 0 -50
50 0 50 0 0 -50 0 -50 100 0 100 0 0 -50 0 -50 500 0 500 0 0 50 0 50 100 0
100 0 0 50 0 50 50 0 50 0 0 50 0 50 150 0 150 0 0 -50 0 -50 200 0 200 0 0
50 0 50 100 0 100 0 0 50 0 50 50 0 50 0 0 50 0 50 50 0 50 0 0 200 0 200 -50
0 -50 0 0 50 0 50 -50 0 -50 0 0 50 0 50 -50 0 -50 0 0 100 0 100 -50 0 -50 0
0 100 0 100 -50 0 -50 0 0 50 0 50 50 0 50 0 0 200 0 200 -50 0 -50 0 0 50 0
50 -50 0 -50 0 0 50 0 50 -100 0 -100 0 0 50 0 50 -50 0 -50 0 0 50 0 50 -50
0 -50 0 0 100 0 100 -50 0 -50 0 0 50 0 50 -50 0 -50 0 0 50 0 50 -250 0 -250
0 0 -50 0 -50 -100 0 -100 0 0 50 0 50 -50 0 -50 0 0 50 0 50 -200 0 -200 0 0
-50z m300 -200 l0 -150 -50 0 -50 0 0 -50 0 -50 100 0 100 0 0 50 0 50 50 0
50 0 0 50 0 50 100 0 100 0 0 50 0 50 200 0 200 0 0 -50 0 -50 50 0 50 0 0
-200 0 -200 200 0 200 0 0 -50 0 -50 100 0 100 0 0 -50 0 -50 50 0 50 0 0
-150 0 -150 -50 0 -50 0 0 -50 0 -50 -50 0 -50 0 0 -50 0 -50 -50 0 -50 0 0
-100 0 -100 -50 0 -50 0 0 -100 0 -100 50 0 50 0 0 -50 0 -50 -50 0 -50 0 0
-50 0 -50 -50 0 -50 0 0 50 0 50 -50 0 -50 0 0 -100 0 -100 -50 0 -50 0 0 -50
0 -50 -50 0 -50 0 0 -50 0 -50 -50 0 -50 0 0 -50 0 -50 -50 0 -50 0 0 50 0 50
-50 0 -50 0 0 50 0 50 -50 0 -50 0 0 -50 0 -50 -50 0 -50 0 0 -50 0 -50 -50 0
-50 0 0 50 0 50 -50 0 -50 0 0 -50 0 -50 -100 0 -100 0 0 50 0 50 -100 0 -100
0 0 100 0 100 -350 0 -350 0 0 50 0 50 -100 0 -100 0 0 100 0 100 -50 0 -50 0
0 50 0 50 50 0 50 0 0 50 0 50 50 0 50 0 0 100 0 100 100 0 100 0 0 50 0 50
-50 0 -50 0 0 150 0 150 -50 0 -50 0 0 100 0 100 -50 0 -50 0 0 150 0 150 50
0 50 0 0 50 0 50 300 0 300 0 0 50 0 50 50 0 50 0 0 50 0 50 50 0 50 0 0 50 0
50 150 0 150 0 0 -150z"/>
<path d="M1210 2150 l0 -50 100 0 100 0 0 50 0 50 -100 0 -100 0 0 -50z"/>
<path d="M1910 2050 l0 -50 100 0 100 0 0 50 0 50 -100 0 -100 0 0 -50z"/>
<path d="M1110 1950 l0 -50 50 0 50 0 0 -50 0 -50 50 0 50 0 0 -50 0 -50 400
0 400 0 0 50 0 50 -300 0 -300 0 0 50 0 50 -150 0 -150 0 0 50 0 50 -50 0 -50
0 0 -50z"/>
<path d="M2310 750 l0 -50 -50 0 -50 0 0 -50 0 -50 50 0 50 0 0 50 0 50 50 0
50 0 0 50 0 50 -50 0 -50 0 0 -50z"/>
</g>
</svg>
